{"glyphs":{"E":{"ha":806,"x_min":65,"x_max":757,"o":"m 756 963 l 757 858 l 349 851 l 349 642 l 664 642 l 664 536 l 347 536 l 347 304 l 728 300 l 726 193 l 65 200 l 67 951 l 756 963 z "},"W":{"ha":1206,"x_min":24,"x_max":1168,"o":"m 289 200 l 24 818 l 278 943 l 494 421 l 635 861 l 733 860 l 878 410 l 1072 894 l 1168 847 l 919 254 l 824 260 l 682 699 l 543 263 l 289 200 z "},"B":{"ha":851,"x_min":65,"x_max":797,"o":"m 711 629 l 775 575 l 797 557 l 793 528 l 753 251 l 746 206 l 65 225 l 68 974 l 332 974 l 331 694 l 608 688 l 625 896 l 389 889 l 386 996 l 681 1003 l 740 1006 l 735 947 l 711 629 m 654 313 l 685 513 l 603 581 l 331 588 l 329 322 l 654 313 z "},"产":{"ha":792,"x_min":47,"x_max":763,"o":"m 83 1013 l 324 1022 l 282 1100 l 375 1150 l 440 1026 l 724 1038 l 735 775 l 93 747 l 83 1013 m 47 75 l 86 538 l 222 526 l 160 671 l 256 713 l 340 524 l 526 526 l 592 728 l 692 697 l 638 529 l 760 533 l 763 426 l 342 417 l 310 54 l 47 75 z "},"全":{"ha":969,"x_min":36,"x_max":935,"o":"m 36 790 l 476 1088 l 935 774 l 833 646 l 479 882 l 128 661 l 36 790 m 761 190 l 194 197 l 196 303 l 332 300 l 335 388 l 263 388 l 263 493 l 339 493 l 342 585 l 226 586 l 226 692 l 731 688 l 731 582 l 606 583 l 604 493 l 694 494 l 694 388 l 600 388 l 597 297 l 763 296 l 761 190 z "},"划":{"ha":1093,"x_min":47,"x_max":1043,"o":"m 364 875 q 395 951 364 919 q 469 982 426 982 q 545 951 514 982 q 576 875 576 919 l 576 874 q 545 798 576 829 q 469 767 514 767 q 395 798 426 767 q 364 874 364 829 l 364 875 m 103 261 l 229 354 l 147 596 l 57 588 l 47 693 l 111 700 l 53 874 l 304 953 l 382 725 l 553 743 l 564 638 l 418 622 l 454 518 l 539 581 l 601 496 l 490 414 l 563 203 l 308 124 l 265 250 l 165 175 l 103 261 m 688 292 l 779 300 l 776 876 l 1040 878 l 1043 196 l 808 194 l 696 186 l 688 292 m 743 408 l 744 354 l 639 354 l 639 407 l 635 749 l 635 800 l 740 801 l 742 750 l 743 408 z "},"动":{"ha":1222,"x_min":50,"x_max":1174,"o":"m 99 894 l 557 894 l 557 788 l 99 788 l 99 894 m 1003 788 l 990 728 l 1174 725 l 1169 258 l 961 256 l 960 363 l 1064 363 l 1067 618 l 969 621 l 894 254 l 636 313 l 699 626 l 638 629 l 638 736 l 719 733 l 744 847 l 1003 788 m 546 529 l 618 268 l 414 213 l 396 274 l 153 276 l 89 278 l 100 340 l 146 569 l 50 569 l 50 675 l 607 675 l 607 569 l 254 569 l 218 382 l 368 379 l 343 475 l 546 529 z "},"及":{"ha":919,"x_min":39,"x_max":876,"o":"m 467 564 l 638 458 q 665 501 651 479 q 689 546 678 522 l 501 600 l 524 656 l 606 843 l 526 849 l 278 300 l 39 411 l 246 868 l 185 874 l 193 979 l 761 939 l 646 669 l 835 614 l 813 560 q 776 480 797 519 q 728 401 754 440 l 876 310 l 742 82 l 549 201 q 335 60 447 113 l 288 154 q 373 201 332 175 q 454 261 414 228 l 332 338 l 467 564 z "},"发":{"ha":963,"x_min":40,"x_max":917,"o":"m 611 954 l 535 790 l 917 779 l 914 675 l 485 688 l 458 632 l 832 581 l 826 531 q 758 303 817 406 l 879 219 l 726 1 l 563 115 q 236 38 425 40 l 236 142 q 356 153 299 143 q 464 185 414 163 l 325 279 l 478 497 l 671 363 q 697 422 686 390 q 715 490 708 454 l 411 532 l 281 258 l 40 371 l 196 696 l 154 697 l 99 700 l 104 757 l 128 979 l 233 968 l 214 801 l 246 800 l 374 1067 l 611 954 m 669 904 q 696 979 667 946 q 769 1014 724 1011 q 811 1008 792 1015 q 846 988 831 1000 q 881 914 878 960 l 881 913 q 854 836 882 867 q 822 811 840 821 q 781 800 803 801 q 704 828 736 800 q 669 901 672 856 l 669 904 z "},"品":{"ha":1104,"x_min":46,"x_max":1057,"o":"m 501 1013 l 504 715 l 732 717 l 731 888 l 538 883 l 535 988 l 847 997 l 840 604 l 507 608 l 507 590 l 242 589 l 236 1011 l 501 1013 m 594 104 l 594 522 l 701 522 l 701 469 l 700 206 l 950 196 l 946 418 l 733 415 l 732 521 l 997 525 l 1050 525 l 1050 472 l 1057 140 l 1057 85 l 1003 88 l 644 101 l 594 104 m 46 138 l 46 514 l 153 514 l 153 238 l 401 228 l 397 411 l 186 408 l 185 513 l 449 517 l 501 517 l 503 464 l 508 174 l 510 117 l 97 135 l 46 138 z "},"安":{"ha":1028,"x_min":38,"x_max":989,"o":"m 535 1043 l 619 904 l 982 913 l 989 706 l 883 706 l 879 804 l 306 793 l 303 706 l 38 706 l 44 936 l 308 928 l 307 899 l 494 901 l 443 988 l 535 1043 m 149 614 l 322 611 l 349 726 l 453 703 l 431 610 l 690 604 l 690 644 l 794 649 l 794 603 l 928 600 l 926 494 l 782 497 q 740 377 769 431 q 669 279 710 324 l 663 271 l 835 190 l 790 94 l 572 196 q 306 100 456 119 l 292 204 q 376 222 335 211 q 454 250 417 233 l 260 340 l 297 506 l 147 508 l 149 614 m 593 350 q 674 499 651 414 l 407 503 l 382 401 l 561 318 q 593 350 578 333 z "},"开":{"ha":892,"x_min":49,"x_max":846,"o":"m 49 542 l 150 542 l 183 788 l 86 788 l 85 893 l 797 890 l 797 785 l 690 785 l 696 540 l 844 540 l 846 435 l 699 435 l 704 193 l 597 192 l 592 435 l 403 435 l 371 200 l 110 240 l 136 435 l 49 435 l 49 542 m 417 540 l 590 540 l 585 786 l 451 786 l 417 540 z "},"研":{"ha":1186,"x_min":47,"x_max":1132,"o":"m 1074 338 l 1074 285 l 968 285 l 968 338 l 967 454 l 878 456 l 869 285 l 604 296 l 611 457 l 564 458 l 564 564 l 618 563 l 626 743 l 574 744 l 574 850 l 1121 846 l 1121 740 l 1068 740 l 1069 561 l 1132 561 l 1132 454 l 1071 454 l 1074 338 m 360 650 l 361 444 l 425 444 l 424 538 l 382 538 l 382 643 l 476 644 l 529 644 l 529 592 l 532 392 l 532 338 l 479 338 l 363 339 l 363 335 l 150 332 l 149 525 l 131 503 l 47 569 l 175 728 l 94 728 l 94 835 l 532 835 l 532 728 l 311 728 l 247 649 l 360 650 m 882 563 l 965 561 l 963 740 l 892 742 l 882 563 z "},"移":{"ha":1100,"x_min":42,"x_max":1050,"o":"m 776 807 l 839 686 q 873 699 857 692 q 906 717 889 707 l 836 846 l 615 785 l 589 892 l 964 997 l 992 889 l 942 875 l 1047 683 q 976 636 1008 656 q 915 603 943 617 q 859 580 886 589 q 804 565 832 571 q 694 555 750 556 q 576 564 639 554 l 593 668 q 666 661 632 663 q 732 663 700 660 l 682 756 l 776 807 m 147 292 l 106 260 l 42 344 l 85 375 l 174 442 l 174 525 l 64 525 l 63 631 l 115 632 l 174 632 l 174 746 l 150 742 l 97 735 l 79 838 l 132 847 l 463 900 l 514 910 l 532 806 l 439 789 l 439 635 l 496 636 l 549 636 l 550 531 l 439 528 l 439 418 l 508 400 l 560 388 l 535 286 l 439 310 l 439 179 l 175 179 l 174 313 l 147 292 m 778 400 l 842 278 q 876 292 860 285 q 908 310 892 300 l 839 438 l 618 376 l 590 485 l 967 589 l 994 482 l 944 468 l 1050 275 q 978 229 1011 249 q 918 196 946 210 q 862 172 889 182 q 807 158 835 163 q 696 148 751 149 q 578 157 640 147 l 596 261 q 669 253 635 256 q 735 254 703 251 l 685 349 l 778 400 z "},"策":{"ha":990,"x_min":47,"x_max":943,"o":"m 225 883 q 257 961 225 929 l 190 961 l 150 796 l 47 822 l 125 1128 l 228 1101 l 218 1067 l 492 1067 l 492 961 l 403 961 q 436 883 436 929 l 436 881 q 405 806 436 838 q 329 775 374 775 q 256 806 286 775 q 225 881 225 836 l 225 883 m 675 883 q 707 961 675 929 l 642 961 l 601 796 l 499 822 l 575 1128 l 678 1101 l 668 1067 l 943 1067 l 943 961 l 853 961 q 888 883 888 931 l 888 881 q 856 806 888 838 q 781 775 825 775 q 706 806 738 775 q 675 881 675 838 l 675 883 m 839 43 l 625 143 l 625 86 l 361 86 l 360 146 l 157 51 l 113 147 l 360 263 l 358 421 l 290 421 l 293 249 l 188 247 l 185 474 l 185 525 l 358 525 l 357 593 l 153 593 l 153 700 l 357 700 l 357 750 l 622 751 l 622 700 l 828 700 l 828 593 l 622 593 l 622 525 l 794 525 l 796 474 l 797 267 l 692 267 l 690 421 l 624 421 l 624 261 l 883 138 l 839 43 z "},"维":{"ha":1096,"x_min":50,"x_max":1043,"o":"m 760 900 q 793 975 760 946 q 827 997 808 989 q 869 1004 846 1004 q 943 972 914 1004 q 971 896 971 943 l 971 893 q 963 853 971 872 q 940 819 954 833 q 906 798 925 806 q 864 790 886 790 q 824 799 843 790 q 790 823 804 808 q 767 857 775 838 q 760 899 760 876 l 760 900 m 400 779 l 296 506 l 417 506 l 417 400 l 144 400 l 171 472 l 222 611 l 50 639 l 67 697 l 153 985 l 254 953 l 186 725 l 260 713 l 300 817 l 400 779 m 665 731 l 531 554 l 392 664 l 526 840 l 665 731 m 689 275 l 751 275 l 751 329 l 697 329 l 697 435 l 751 435 l 750 503 l 697 503 l 697 608 l 750 608 l 750 663 l 689 663 l 689 768 l 1043 768 l 1043 663 l 981 663 l 981 610 l 1033 610 l 1033 503 l 981 503 l 981 436 l 1033 436 l 1033 329 l 981 329 l 981 276 l 1043 276 l 1043 171 l 689 169 l 689 275 m 644 538 l 647 249 l 471 247 l 468 538 l 644 538 m 78 264 l 410 358 l 438 256 l 107 163 l 78 264 z "},"营":{"ha":894,"x_min":47,"x_max":846,"o":"m 60 1042 l 158 1042 l 156 1113 l 419 1124 l 422 1042 l 604 1042 l 611 1128 l 717 1121 l 710 1042 l 821 1042 l 821 936 l 701 936 l 696 863 l 592 868 l 596 936 l 428 936 l 429 875 l 167 865 l 164 936 l 60 936 l 60 1042 m 154 675 l 49 675 l 49 781 l 47 835 l 838 833 l 840 783 l 843 722 l 846 668 l 742 663 l 738 715 l 738 728 l 154 728 l 154 675 m 442 676 l 442 524 l 619 522 l 618 575 l 467 575 l 467 681 l 722 682 l 724 629 l 728 469 l 729 414 l 674 415 l 443 417 l 443 413 l 179 410 l 176 675 l 442 676 m 428 371 l 429 129 l 657 128 l 654 269 l 453 269 l 453 375 l 760 375 l 760 324 l 764 75 l 764 22 l 429 25 l 429 18 l 165 17 l 163 369 l 428 371 z "},"视":{"ha":1110,"x_min":49,"x_max":1074,"o":"m 138 967 q 169 1042 138 1011 q 244 1074 200 1074 q 319 1042 288 1074 q 350 967 350 1011 l 350 964 q 319 890 350 921 q 244 858 288 858 q 169 890 200 858 q 138 964 138 921 l 138 967 m 867 428 l 869 286 l 965 288 l 968 338 l 1074 333 l 1071 236 l 1068 185 l 1018 185 l 767 178 l 765 231 l 763 328 l 658 149 l 428 281 l 525 450 l 468 450 l 468 503 l 471 815 l 472 868 l 985 871 l 985 443 l 879 443 l 879 529 l 819 426 l 867 428 m 376 526 l 376 460 l 407 444 l 456 422 l 410 326 l 376 342 l 378 182 l 113 182 l 113 435 l 64 426 l 49 532 l 100 540 q 185 566 150 549 q 244 607 221 583 q 280 660 267 631 q 300 724 293 690 l 58 725 l 60 832 l 113 831 l 357 828 l 410 826 l 410 775 q 390 649 408 707 q 331 546 371 590 l 313 526 l 376 526 m 879 764 l 576 763 l 575 532 l 690 732 l 879 621 l 879 764 z "},"觉":{"ha":851,"x_min":46,"x_max":804,"o":"m 153 806 l 153 729 l 46 729 l 46 911 l 99 913 l 164 913 l 133 1025 l 236 1051 l 274 913 l 356 913 l 324 1035 l 426 1063 l 465 914 l 543 914 l 618 1054 l 711 1003 l 664 915 l 735 917 l 788 917 l 789 864 l 790 788 l 790 735 l 685 732 l 683 786 l 683 811 l 153 806 m 560 499 l 508 404 l 558 406 l 561 213 l 699 215 l 700 264 l 804 263 l 803 163 l 801 113 l 751 113 l 456 103 l 456 157 l 453 303 l 332 81 l 115 199 l 178 313 l 126 313 l 126 693 l 178 694 l 654 700 l 707 700 l 708 647 l 711 364 l 711 313 l 604 311 l 604 364 l 603 593 l 389 590 l 560 499 m 232 413 l 329 590 l 232 589 l 232 413 z "},"计":{"ha":1008,"x_min":51,"x_max":968,"o":"m 81 786 q 93 848 81 819 q 128 899 106 876 q 178 933 150 921 q 242 946 207 946 q 302 933 274 946 q 353 899 331 921 q 388 848 375 876 q 400 786 400 819 l 400 783 q 388 721 400 750 q 353 671 375 692 q 302 638 331 650 q 242 625 274 625 q 178 638 207 625 q 128 671 150 650 q 93 721 106 692 q 81 783 81 750 l 81 786 m 829 860 l 829 585 l 967 586 l 968 479 l 829 478 l 829 196 l 565 196 l 564 475 l 426 474 l 425 579 l 564 581 l 564 860 l 829 860 m 51 569 l 108 569 l 108 593 l 374 593 l 372 313 l 408 311 l 403 204 l 218 214 l 108 214 l 108 463 l 51 463 l 51 569 z "},"设":{"ha":1051,"x_min":47,"x_max":1004,"o":"m 419 671 l 454 997 l 854 1000 l 857 768 l 874 769 l 907 853 l 1004 814 l 946 665 l 753 664 l 749 897 l 653 893 l 628 656 l 419 671 m 78 788 q 90 851 78 822 q 125 901 103 879 q 175 936 146 924 q 238 949 204 949 q 299 936 269 949 q 350 901 328 924 q 383 851 371 879 q 396 788 396 822 l 396 786 q 383 724 396 753 q 350 674 371 694 q 299 639 328 651 q 238 626 269 626 q 175 639 204 626 q 125 674 146 651 q 90 724 103 694 q 78 786 78 753 l 78 788 m 513 501 l 757 394 q 808 517 790 444 l 458 526 l 463 633 l 517 631 l 925 619 q 924 565 926 590 q 918 514 922 539 q 899 423 913 464 q 865 347 885 382 l 964 304 l 886 149 l 726 219 q 623 184 679 194 q 504 175 567 174 l 483 175 l 458 176 l 458 283 l 489 282 q 504 281 501 282 q 575 286 543 281 l 436 347 l 513 501 m 47 572 l 104 572 l 104 596 l 369 596 l 368 314 l 404 313 l 399 207 l 215 217 l 104 217 l 104 465 l 47 465 l 47 572 z "},"运":{"ha":1078,"x_min":51,"x_max":1031,"o":"m 82 851 q 94 915 82 886 q 129 965 107 943 q 179 1000 150 988 q 242 1013 208 1013 q 303 1000 274 1013 q 354 965 332 988 q 388 915 375 943 q 400 851 400 886 l 400 850 q 388 788 400 817 q 354 738 375 758 q 303 703 332 715 q 242 690 274 690 q 179 703 208 690 q 129 738 150 715 q 94 788 107 758 q 82 850 82 817 l 82 851 m 493 989 l 939 993 l 940 888 l 494 885 l 493 989 m 810 293 l 792 356 l 428 363 l 532 657 l 444 657 l 444 763 l 988 767 l 988 661 l 644 658 l 574 464 l 760 463 l 729 567 l 950 629 l 1031 356 l 810 293 m 936 125 l 372 201 l 372 139 l 107 140 l 108 464 l 54 463 l 51 569 l 110 571 l 110 622 l 375 622 l 374 307 l 950 231 l 936 125 z "},"部":{"ha":1179,"x_min":51,"x_max":1133,"o":"m 376 993 l 397 899 l 622 900 l 622 794 l 569 793 l 76 790 l 76 897 l 289 897 l 272 971 l 376 993 m 943 151 l 679 151 l 678 643 l 935 643 l 942 658 l 967 713 l 682 713 l 682 817 l 735 818 l 1133 819 l 1099 744 l 1054 650 q 1101 583 1083 618 q 1126 515 1118 549 q 1131 447 1133 481 q 1121 388 1129 414 q 1051 288 1101 328 q 1002 265 1028 274 q 943 253 976 256 l 943 151 m 235 775 l 276 619 l 424 619 l 464 775 l 565 750 l 532 621 l 647 621 l 647 514 l 51 513 l 51 618 l 165 618 l 132 750 l 235 775 m 989 375 q 1021 420 1011 389 q 1024 488 1031 451 q 1001 545 1017 517 q 958 594 985 574 l 942 607 l 942 360 q 989 375 971 361 m 339 465 l 340 263 l 519 261 l 517 365 l 364 364 l 364 471 l 622 472 l 622 419 l 626 208 l 626 154 l 572 154 l 342 157 l 342 150 l 76 150 l 75 464 l 339 465 z "}}}
